<?xml version="1.0" standalone="no"?>
<!DOCTYPE svg PUBLIC "-//W3C//DTD SVG 20010904//EN"
 "http://www.w3.org/TR/2001/REC-SVG-20010904/DTD/svg10.dtd">
<svg version="1.0" xmlns="http://www.w3.org/2000/svg"
 width="120px" height="120px" viewBox="0 0 627.000000 724.000000"
 preserveAspectRatio="xMidYMid meet"> 

<g transform="translate(0.000000,724.000000) scale(0.100000,-0.100000)"
fill="#ffe7d8" stroke="none">
<path d="M5267 7004 c-4 -4 -7 -25 -7 -47 0 -49 -29 -199 -41 -211 -5 -6 -9
-18 -9 -28 0 -10 -4 -18 -10 -18 -5 0 -10 -9 -10 -20 0 -18 -28 -88 -40 -100
-3 -3 -14 -23 -25 -45 -26 -51 -88 -149 -97 -153 -5 -2 -8 -10 -8 -17 0 -7 -6
-16 -12 -18 -31 -13 28 -5 142 18 68 14 124 24 125 23 1 -2 14 -20 30 -41 l28
-38 68 7 68 6 63 -45 c123 -87 214 -208 286 -377 51 -121 95 -261 85 -270 -63
-55 -136 -110 -140 -106 -3 3 0 27 6 53 12 44 11 48 -11 65 -13 10 -52 33 -88
50 -59 29 -75 33 -177 36 -76 3 -113 8 -113 16 0 6 -7 87 -15 180 -13 155 -17
172 -42 210 -17 25 -28 35 -30 26 -1 -8 -9 -92 -17 -187 -14 -167 -16 -173
-54 -250 l-40 -79 -150 -33 -150 -34 -11 -62 c-6 -34 -11 -69 -11 -78 0 -9 -4
-17 -10 -17 -7 0 -134 65 -149 77 -2 1 9 94 24 205 l28 203 73 168 c40 92 69
167 65 167 -5 0 -21 -19 -36 -42 -15 -22 -37 -51 -49 -62 -33 -32 -101 -140
-136 -216 -4 -8 -12 -25 -18 -37 -7 -13 -12 -27 -12 -33 0 -6 -16 -43 -34 -83
-19 -39 -38 -84 -42 -100 -3 -15 -10 -30 -15 -33 -5 -3 -9 -42 -9 -87 l0 -82
50 -64 c28 -36 50 -69 50 -75 0 -6 10 -23 23 -39 l22 -27 92 78 c87 74 97 79
180 100 48 12 154 39 235 60 l147 39 180 -67 c99 -37 211 -86 249 -108 39 -23
75 -42 81 -42 5 0 47 44 91 97 79 93 82 98 76 137 -3 23 -8 100 -12 171 -5
114 -10 138 -35 193 -16 35 -29 65 -29 68 0 2 -24 41 -53 87 -65 100 -152 194
-232 252 -33 24 -72 56 -86 71 -37 42 -123 180 -199 319 -26 50 -52 145 -59
220 -4 52 -10 71 -21 73 -9 1 -19 0 -23 -4z"/>
<path d="M2282 6192 c-6 -20 -14 -62 -16 -92 -5 -47 -19 -128 -42 -241 -5 -23
-1 -27 37 -38 23 -7 64 -32 91 -54 l48 -42 -47 -7 c-27 -3 -83 -7 -125 -7
l-78 -1 0 -44 c0 -43 2 -46 78 -110 l77 -65 107 -258 c59 -142 110 -266 114
-275 6 -16 3 -17 -27 -4 -99 41 -226 39 -407 -6 l-84 -21 64 -64 c92 -94 91
-94 149 -37 l49 48 95 -23 c52 -13 95 -26 95 -29 -1 -4 -25 -34 -54 -66 l-54
-60 -166 -1 -167 -1 -76 119 -77 120 20 36 c11 20 80 134 152 253 73 119 132
220 132 225 0 5 -14 28 -31 52 l-31 42 -42 -83 c-22 -46 -44 -84 -48 -86 -5
-2 -8 -8 -8 -14 0 -6 -10 -25 -23 -42 -12 -17 -42 -71 -66 -121 -23 -49 -47
-98 -52 -107 -5 -10 -9 -25 -9 -33 0 -8 -4 -15 -10 -15 -5 0 -10 -6 -10 -14 0
-8 -5 -16 -11 -18 -5 -2 -10 -21 -11 -43 0 -39 12 -68 66 -154 18 -29 26 -54
26 -87 0 -58 -23 -81 -88 -89 -26 -3 -60 -10 -77 -14 -16 -5 -46 -12 -65 -16
-19 -4 -39 -11 -45 -14 -5 -4 -41 -18 -80 -31 -129 -42 -464 -206 -473 -231
-2 -5 -9 -9 -16 -9 -6 0 -21 -7 -31 -15 -11 -8 -47 -35 -80 -59 -101 -74 -217
-189 -279 -276 -68 -94 -156 -262 -156 -296 0 -13 -5 -26 -10 -29 -6 -3 -10
-15 -10 -26 0 -10 -4 -27 -10 -37 -24 -43 -50 -245 -56 -429 l-5 -142 38 -24
c21 -13 77 -45 125 -71 l87 -47 58 29 c266 135 701 257 1053 296 325 37 898
45 1350 20 63 -4 113 -4 110 -1 -11 12 -517 119 -740 156 -618 104 -1024 103
-1375 -4 -109 -34 -274 -103 -373 -157 l-74 -39 7 58 c46 407 182 682 439 892
209 171 428 257 841 332 156 29 455 36 593 15 313 -48 612 -219 885 -505 298
-314 378 -586 271 -922 -4 -12 13 -23 73 -48 43 -17 81 -31 84 -31 15 0 34
166 33 295 -1 110 -6 158 -23 225 -21 80 -77 211 -93 218 -5 2 -8 8 -8 13 0
11 -50 86 -109 165 -77 102 -300 317 -423 408 -65 47 -120 86 -122 86 -2 0
-42 25 -88 56 -92 63 -253 143 -338 169 -93 29 -139 47 -149 59 -5 6 -12 34
-16 62 l-6 51 85 100 c47 56 86 105 86 110 0 4 -24 41 -54 80 -29 40 -73 103
-97 140 -24 38 -46 70 -49 73 -27 26 -104 197 -108 241 -4 43 -1 51 25 76 45
42 73 88 73 118 0 18 -16 43 -48 78 -48 51 -49 54 -76 182 -15 72 -32 156 -38
188 -13 75 -40 93 -56 39z"/>
<path d="M5355 5432 c-2 -3 -2 -190 2 -417 l6 -412 -77 -12 c-43 -7 -79 -11
-81 -9 -2 1 -9 113 -16 247 l-13 243 -45 43 c-84 79 -111 98 -115 83 -3 -7
-12 -54 -20 -104 -14 -77 -15 -118 -6 -265 5 -96 10 -202 10 -235 l0 -61 -60
-13 c-33 -7 -64 -10 -68 -6 -4 4 -14 125 -23 269 -16 251 -16 266 2 381 10 66
17 121 15 123 -1 2 -33 -44 -70 -101 l-66 -104 10 -68 c5 -38 10 -127 11 -199
0 -71 4 -170 8 -220 4 -49 5 -100 3 -112 -4 -22 -33 -37 -92 -48 -19 -3 -44
-10 -55 -15 -11 -4 -38 -13 -60 -19 -99 -25 -132 -35 -166 -49 -33 -13 -37
-20 -42 -58 -2 -23 -2 -94 1 -157 l5 -115 58 -38 c87 -56 123 -139 135 -305
l7 -96 66 -32 66 -32 320 141 c176 78 337 149 358 157 21 9 36 18 33 20 -2 2
-161 -43 -353 -102 -191 -58 -356 -108 -365 -111 -16 -5 -18 3 -18 63 0 142
-32 250 -94 316 -14 15 -26 30 -26 32 0 6 85 31 533 159 243 70 385 106 417
106 l49 0 -5 -122 c-6 -133 -5 -134 42 -45 23 44 27 47 64 47 47 0 47 -2 20
-89 -11 -36 -17 -67 -15 -69 2 -3 27 14 56 37 28 22 57 41 63 41 7 0 24 -13
39 -28 l27 -28 -16 -53 c-8 -29 -13 -55 -10 -58 3 -4 41 10 85 30 l79 35 41
-30 c23 -16 41 -33 41 -36 0 -11 -185 -122 -202 -122 -8 0 -64 23 -124 51 -60
28 -137 64 -171 79 l-62 28 -12 -56 c-6 -32 -15 -60 -20 -63 -6 -3 -5 -257 1
-640 33 -1913 48 -2854 45 -2857 -2 -2 -66 30 -142 72 l-139 76 -24 250 c-12
138 -26 253 -30 255 -4 2 -22 0 -41 -5 -19 -5 -53 -14 -76 -20 l-43 -11 0
-180 c0 -116 -4 -179 -10 -177 -25 8 -200 165 -204 183 -3 11 -16 513 -30
1115 -14 602 -28 1127 -30 1165 -4 62 -28 145 -42 145 -4 0 0 -1260 8 -2536 0
-105 -2 -196 -6 -203 -10 -15 -66 -14 -118 3 -24 8 -60 17 -80 20 -60 11 -82
27 -174 132 -49 54 -91 101 -94 104 -3 3 -50 54 -105 115 -55 60 -113 123
-128 139 -47 48 -54 66 -73 189 -11 75 -23 122 -33 131 -11 10 -123 26 -351
50 -184 20 -522 57 -750 81 -228 25 -432 48 -452 51 l-38 6 0 -65 c0 -35 -3
-112 -7 -171 l-6 -106 -181 -152 c-100 -83 -188 -157 -196 -164 -12 -10 -129
1 -615 56 -821 94 -865 100 -904 106 -20 3 -32 1 -30 -5 2 -5 38 -45 79 -88
42 -43 91 -96 109 -118 18 -22 81 -90 140 -150 58 -61 137 -143 174 -184 l68
-73 67 6 c278 26 445 31 1002 31 690 -1 939 -13 1860 -90 609 -50 805 -71 831
-88 15 -9 72 -19 149 -26 174 -15 706 -68 875 -86 77 -8 158 -20 180 -27 22
-7 45 -12 50 -13 11 0 10 621 -6 2360 -5 666 -5 1109 0 1154 6 45 17 85 29
100 24 34 120 85 188 101 63 15 57 -3 79 243 19 217 21 202 -17 217 -18 7 -64
27 -103 45 -38 18 -95 43 -125 56 -135 59 -135 59 -138 114 -2 28 1 167 8 311
l12 261 -45 113 -45 113 -211 77 c-116 42 -213 75 -216 72z m310 -360 l35
-102 0 -219 c0 -119 -3 -220 -6 -223 -3 -3 -42 10 -86 30 l-81 37 6 223 7 222
42 70 c22 39 43 69 45 67 1 -2 19 -49 38 -105z m-240 -627 c4 -31 5 -59 2 -62
-4 -3 -100 -30 -214 -59 -559 -145 -711 -184 -717 -184 -4 0 -5 44 -4 97 l3
97 445 82 c245 45 453 82 462 83 13 1 18 -11 23 -54z m315 -1561 l50 -107 0
-203 c0 -134 -4 -204 -10 -204 -6 0 -47 14 -90 31 l-80 30 0 227 0 227 35 53
c20 28 38 52 40 52 3 0 28 -48 55 -106z m-30 -623 l75 -27 3 -220 c1 -120 0
-224 -2 -230 -3 -9 -30 -4 -93 15 l-88 28 -3 231 c-3 268 -13 248 108 203z
m-12 -595 c40 -7 78 -18 84 -24 11 -11 1 -492 -11 -492 -27 0 -149 43 -158 57
-10 12 -13 78 -13 245 0 176 3 228 13 227 6 0 45 -6 85 -13z m-2795 -746 c136
-124 241 -226 234 -228 -7 -1 -129 11 -272 28 -143 16 -387 44 -542 62 -156
17 -283 34 -283 37 1 9 594 330 606 328 6 -1 122 -103 257 -227z m2840 109
l37 -10 0 -116 c0 -64 -2 -114 -5 -112 -4 5 -95 237 -95 244 0 8 22 6 63 -6z"/>
<path d="M2221 5355 c-32 -76 -121 -318 -118 -321 2 -2 36 8 75 22 l72 27 -1
76 c-1 42 -5 110 -8 151 -7 72 -7 74 -20 45z"/>
<path d="M2812 4201 c123 -99 188 -176 188 -222 0 -35 -30 -54 -133 -85 -85
-25 -114 -44 -102 -64 8 -13 120 -67 329 -161 66 -29 131 -63 145 -75 l26 -22
-30 -12 c-22 -9 -89 -11 -245 -6 -118 3 -314 9 -435 13 -148 4 -249 2 -308 -6
-89 -12 -197 -45 -197 -60 0 -5 46 -11 103 -15 432 -29 747 -75 957 -142 143
-45 238 -94 369 -189 50 -37 122 -35 161 3 34 35 55 121 45 195 -34 272 -220
493 -615 732 -101 61 -312 175 -324 175 -4 0 26 -26 66 -59z"/>
<path d="M5286 4184 l-46 -56 0 -120 c0 -105 2 -119 16 -114 9 3 21 6 29 6 8
0 15 22 20 67 12 118 31 142 108 143 52 0 51 0 37 50 -8 29 -18 39 -57 55 -26
11 -50 21 -54 23 -3 1 -27 -23 -53 -54z"/>
<path d="M5027 4083 l-47 -58 0 -112 c0 -105 1 -113 19 -113 43 0 51 10 51 66
0 59 17 111 44 133 9 8 37 14 61 13 49 0 55 10 36 62 -9 21 -83 66 -111 66 -3
0 -28 -26 -53 -57z"/>
<path d="M4780 3998 c-57 -67 -59 -75 -60 -190 0 -114 0 -114 48 -102 17 5 22
14 22 40 0 116 41 177 115 173 43 -3 43 -3 30 58 -5 21 -79 63 -109 63 -6 0
-27 -19 -46 -42z"/>
<path d="M5010 3589 c0 -17 80 -149 90 -149 16 0 100 44 98 51 -2 4 -30 30
-63 58 -45 38 -68 51 -92 51 -18 0 -33 -5 -33 -11z"/>
<path d="M5343 3541 c-42 -6 -43 -7 -110 -121 l-66 -115 36 -140 c20 -76 35
-141 33 -143 -2 -1 -44 31 -92 72 -49 42 -91 76 -94 76 -3 0 -30 -49 -59 -108
-51 -103 -53 -111 -45 -156 l9 -47 58 81 c32 44 62 80 68 80 5 0 59 -25 120
-56 61 -30 113 -53 116 -51 2 3 -2 78 -10 168 l-14 164 57 147 c52 132 60 161
41 156 -3 0 -25 -4 -48 -7z"/>
<path d="M4788 3219 c29 -35 67 -95 84 -132 38 -81 44 -75 49 53 l4 85 -59 23
c-33 13 -75 26 -95 30 l-36 5 53 -64z"/>
<path d="M2340 3174 c-25 -2 -101 -9 -170 -14 -178 -16 -456 -64 -660 -116
-181 -45 -474 -136 -500 -155 -12 -8 -11 -9 6 -5 38 11 368 64 509 83 119 15
205 18 580 16 242 -1 462 -5 489 -10 l49 -8 -69 -46 -69 -46 -340 -6 c-591
-10 -897 -52 -1260 -172 -191 -63 -241 -84 -229 -94 5 -5 38 -16 74 -25 64
-17 72 -17 600 28 294 26 578 50 630 55 87 8 104 6 215 -20 66 -16 130 -34
143 -39 13 -6 77 -55 142 -110 65 -55 121 -100 125 -100 3 0 47 28 97 61 106
72 93 77 162 -61 l43 -85 -18 -130 c-10 -71 -18 -144 -19 -161 l0 -31 103 -25
102 -25 7 61 c3 34 9 131 13 216 l7 155 38 53 38 53 41 -76 41 -77 0 -199 c0
-227 -8 -209 96 -223 l51 -7 12 153 c7 84 17 167 22 183 5 17 29 52 52 78 l43
48 48 -91 48 -91 -16 -166 c-9 -91 -15 -167 -14 -168 2 -1 41 -11 88 -23 55
-14 87 -17 91 -11 3 6 14 90 23 187 10 97 21 206 27 242 21 146 21 144 -55
213 l-69 62 66 50 c37 28 67 54 67 59 0 4 -25 35 -56 69 l-56 60 59 59 58 59
-28 23 c-38 31 -179 100 -279 137 -167 62 -417 115 -648 139 -111 11 -474 21
-550 14z"/>
<path d="M5067 2833 l-47 -86 0 -184 c0 -126 3 -183 11 -183 19 0 154 42 167
53 9 7 12 61 12 206 l0 197 -32 30 c-64 59 -59 61 -111 -33z"/>
<path d="M2148 2509 c-72 -48 -78 -54 -78 -86 0 -28 3 -34 15 -29 9 3 41 13
72 22 l57 16 43 -45 43 -46 0 -184 0 -184 -292 -7 c-161 -3 -312 -9 -335 -12
l-43 -6 0 178 0 177 -51 96 c-28 53 -52 97 -54 99 -2 2 -30 -11 -64 -27 -56
-29 -64 -37 -96 -101 -19 -38 -35 -72 -35 -76 0 -3 15 -4 33 -1 17 3 51 9 75
12 l42 7 0 -190 0 -190 -27 -6 c-106 -20 -234 -39 -238 -34 -3 3 -17 101 -31
219 l-26 214 -46 55 c-25 30 -47 57 -49 59 -1 2 -31 -8 -65 -23 -63 -26 -63
-27 -80 -86 -10 -32 -18 -64 -18 -70 0 -6 24 7 53 30 30 22 56 40 59 40 3 0
20 -22 37 -49 l31 -48 -2 -188 -3 -188 -145 -38 c-80 -21 -151 -38 -157 -38
-10 -1 -13 55 -13 248 l0 250 -74 40 c-40 23 -76 41 -80 41 -10 0 -56 -102
-50 -112 3 -4 27 -18 55 -29 32 -14 51 -29 54 -43 3 -11 4 -115 3 -230 l-3
-209 -30 -18 c-16 -10 -39 -18 -50 -18 -24 -1 -139 -121 -162 -169 -14 -29
-14 -43 -4 -100 12 -67 12 -67 69 -100 l56 -33 75 25 c141 46 784 142 1216
181 242 22 772 31 995 16 322 -22 607 -56 894 -107 l138 -25 74 78 c82 87 88
107 55 180 -23 50 -49 68 -116 81 -27 6 -61 14 -74 18 -20 6 -22 4 -18 -12 10
-34 20 -164 12 -164 -4 0 -73 11 -154 25 -162 27 -403 57 -616 77 -183 17
-787 17 -960 0 -345 -34 -720 -92 -1060 -164 -181 -38 -192 -42 -228 -76 l-37
-36 -55 27 c-37 18 -66 42 -89 74 -20 27 -36 51 -36 54 0 10 222 90 380 138
304 91 621 156 920 186 225 23 677 30 983 15 142 -6 260 -10 262 -8 7 7 -295
47 -491 65 l-182 17 -6 35 c-3 20 -6 117 -6 216 l0 180 -87 82 c-49 46 -92 83
-98 83 -5 0 -45 -23 -87 -51z"/>
<path d="M5109 2263 l-76 -34 -6 -142 c-9 -189 -9 -327 0 -327 25 0 163 54
164 63 2 39 0 470 -3 472 -2 2 -37 -12 -79 -32z"/>
<path d="M5083 1653 l-73 -25 0 -259 c0 -220 2 -259 15 -259 12 0 69 10 143
26 l22 4 0 270 c0 310 11 284 -107 243z"/>
</g>
</svg>
